<svg xmlns="http://www.w3.org/2000/svg" viewBox="0 0 99.2126 42.51969"><defs><style>.cls-1{fill:#fff;}.cls-2{fill:#4c91d8;}</style></defs><g id="Capa_6" data-name="Capa 6"><path class="cls-1" d="M54.16683,21.99466V14.029H49.62539v1.02232a6.00913,6.00913,0,0,0-.88807-.56238,6.49075,6.49075,0,0,0-2.83424-.62828c-.08681,0-.16493.01905-.25045.022V10.98185l6.50829-1.78571V4.156a1.52172,1.52172,0,0,0,1.10786-1.45066,1.54948,1.54948,0,0,0-3.0989,0A1.52178,1.52178,0,0,0,51.2786,4.15624V8.52848l-5.626,1.54439V7.23461A1.52185,1.52185,0,0,0,46.76049,5.784a1.54952,1.54952,0,0,0-3.099,0,1.52191,1.52191,0,0,0,1.10879,1.45087v6.72532a5.98121,5.98121,0,0,0-3.3248,1.67806,5.886,5.886,0,0,0-1.35558,2.04157c-.07181-.0801-.12681-.16955-.20457-.24631A5.05682,5.05682,0,0,0,36.39964,15.97l-1.34021-1.30528,4.08491-1.59447V7.23461A1.52185,1.52185,0,0,0,40.25213,5.784a1.54949,1.54949,0,0,0-3.09891,0A1.52192,1.52192,0,0,0,38.262,7.23482v5.23856l-3.89277,1.51914L32.5832,12.25311l.03023-1.9355a1.52063,1.52063,0,0,0,1.13034-1.45515,1.54949,1.54949,0,0,0-3.09891,0,1.52291,1.52291,0,0,0,1.08575,1.44624L31.694,12.616l3.51457,3.42169a5.03943,5.03943,0,0,0-2.26,1.00327V15.95035H31.77211a4.37731,4.37731,0,0,0-1.36485.214L27.287,16.1321V13.32764H25.37447l.73836-2.815.00954-3.27695A1.52174,1.52174,0,0,0,27.23548,5.784a1.54952,1.54952,0,0,0-3.099,0,1.522,1.522,0,0,0,1.10779,1.45066V10.346l-.15129.57636L19.61832,7.09558V4.15624a1.52185,1.52185,0,0,0,1.10879-1.45087,1.54948,1.54948,0,0,0-3.0989,0A1.52179,1.52179,0,0,0,18.736,4.156V7.551l6.11933,4.27695-.39363,1.49973H22.873v2.7317a5.18347,5.18347,0,0,0-1.08223-.109,4.75417,4.75417,0,0,0-3.53848,1.43589V16.1244a2.494,2.494,0,0,0,.07123-.60432,2.19613,2.19613,0,0,0-.67668-1.6469,2.42321,2.42321,0,0,0-3.20417.00229c-.04488.04258-.091.10093-.137.1535H13.21917V10.31312a1.52187,1.52187,0,0,0,1.10772-1.45066,1.54949,1.54949,0,0,0-3.09891,0,1.52192,1.52192,0,0,0,1.10887,1.45087V14.029H10.5205v4.067H8.52608V14.029H6.70973V10.31333A1.52192,1.52192,0,0,0,7.8186,8.86246a1.54949,1.54949,0,0,0-3.09891,0,1.52187,1.52187,0,0,0,1.10772,1.45066V14.029H3.98464V26.25285H8.52608V22.35417H10.5205v3.89868H10.512c2.847,1.67778,18.72154,1.85232,21.62664,4.02735,1.72243,1.2896-5.74508,1.61915-9.82181,2.25849-4.96882.77922-7.04266,4.36746-2.90777,6.53693a23.68389,23.68389,0,0,0,8.45051,2.55893c.01343.00129.02743.00193.04086.00193H38.398a.36057.36057,0,0,0,.09206-.71053C32.737,39.51067,22.35433,36.5938,28.11651,35.19713c5.20584-1.26178,18.67809-4.28244,9.66507-5.98647C28.12168,27.3843,15.074,26.93,14.0256,26.25285h4.22673v-1.26a4.74209,4.74209,0,0,0,3.53848,1.44261,4.91308,4.91308,0,0,0,1.36255-.18261h7.2539V21.49477a1.25465,1.25465,0,0,1,.32628-.87423.7307.7307,0,0,1,.29411-.18275,6.00015,6.00015,0,0,0-.06549.74769,5.25682,5.25682,0,0,0,8.92549,3.7583,4.98981,4.98981,0,0,0,.84277-1.14908,6.06735,6.06735,0,0,0,5.17266,2.64076,6.48017,6.48017,0,0,0,2.83194-.62772,5.94441,5.94441,0,0,0,.89037-.537v.98209h8.42344V21.99466Zm-31.56607.01712a.77455.77455,0,0,1-1.16954-.00114,1.38885,1.38885,0,0,1,.00115-1.65032.809.809,0,0,1,1.16839,0,1.38821,1.38821,0,0,1,0,1.65146Zm14.1551.01142a.76519.76519,0,0,1-1.17183-.00685,1.12575,1.12575,0,0,1-.278-.83087,1.10673,1.10673,0,0,1,.27458-.82059.73552.73552,0,0,1,.59626-.25394.71548.71548,0,0,1,.58362.24937,1.11977,1.11977,0,0,1,.27228.82516A1.14217,1.14217,0,0,1,36.75586,22.0232Zm12.86953-.4705L48.04111,20.301l-.72837.94613a1.63234,1.63234,0,0,1-1.40966.67679,1.67293,1.67293,0,0,1-1.258-.48505,1.95135,1.95135,0,0,1-.00115-2.581,1.6777,1.6777,0,0,1,1.25915-.48619,1.61485,1.61485,0,0,1,1.40736.64712l.72378.94556,1.59117-1.24394Z"/><path class="cls-1" d="M95.00053,5.32356a1.54619,1.54619,0,1,0-1.9809,1.4765V9.65541H90.25822a1.54616,1.54616,0,1,0,0,.87012h2.76141v1.01416l-2.84253,2.697a8.17831,8.17831,0,0,0-1.56372-.15552H84.21787v2.09912a6.00885,6.00885,0,0,0-.40918-.5,5.92471,5.92471,0,0,0-3.959-1.72864V12.10939a1.54587,1.54587,0,1,0-.86914.00421v1.83807A5.78569,5.78569,0,0,0,74.03428,17.02a5.761,5.761,0,0,0-4.93652-3.06836V9.01924a1.54627,1.54627,0,1,0-.86914-.00031v4.93274a5.94532,5.94532,0,0,0-3.9629,1.72718,5.83193,5.83193,0,0,0-1.4638,2.47656h-6.4151v3.87793H54.11826V14.08119h-4.4375v1.07562a5.96253,5.96253,0,0,0-.998-.61957,6.37078,6.37078,0,0,0-2.79688-.624,6.00977,6.00977,0,0,0-4.39746,1.76563,5.84364,5.84364,0,0,0-1.37018,2.146c-.09894-.11761-.18152-.24432-.29291-.355a5.24333,5.24333,0,0,0-6.959-.28772v-1.183H31.73252a4.26144,4.26144,0,0,0-1.38574.227v-.05908H27.18272V13.38148H22.87119v2.73487a5.0251,5.0251,0,0,0-1.10644-.11719A4.66446,4.66446,0,0,0,18.20567,17.487c-.02027.02173-.03345.04785-.05323.06989V16.16713h-.00879a2.47231,2.47231,0,0,0,.07813-.62989,2.16794,2.16794,0,0,0-.66016-1.62011,2.32537,2.32537,0,0,0-3.13379.00244c-.04675.0448-.095.10553-.143.16162H10.48057v4.06006h-2.044V14.08119H3.99912V26.21888h4.4375v-3.8916h2.044v3.8916h7.67187V24.83613c.01874.02088.03119.04572.0503.06635a4.653,4.653,0,0,0,3.562,1.498A4.79052,4.79052,0,0,0,23.11,26.21888h7.23682V21.50111a1.29225,1.29225,0,0,1,.32959-.89355.85141.85141,0,0,1,.42755-.238,6.00311,6.00311,0,0,0-.07159.82343,5.07572,5.07572,0,0,0,1.48046,3.728,5.08793,5.08793,0,0,0,8.196-1.23645,6.06765,6.06765,0,0,0,5.17706,2.71595,6.37191,6.37191,0,0,0,2.79785-.624,5.85256,5.85256,0,0,0,.99707-.6217v1.06408h8.28711V22.45326h4.91742a5.84014,5.84014,0,0,0,1.38043,2.18262,6.35409,6.35409,0,0,0,8.791-.002,5.90106,5.90106,0,0,0,.97748-1.3396,5.90261,5.90261,0,0,0,.98346,1.34156,5.95376,5.95376,0,0,0,9.20019-.502v2.085h4.4375v-3.584a5.64019,5.64019,0,0,0,3.74317-1.13574,4.02175,4.02175,0,0,0,1.39453-3.148,3.99816,3.99816,0,0,0-1.39942-3.145,4.21883,4.21883,0,0,0-1.24072-.6958l2.73584-2.59668V6.80012A1.54119,1.54119,0,0,0,95.00053,5.32356ZM22.59287,22.0392a.8321.8321,0,0,1-1.208,0,1.42549,1.42549,0,0,1,0-1.69239.8321.8321,0,0,1,1.208,0,1.42553,1.42553,0,0,1,0,1.69239Zm14.17676.01172a.7287.7287,0,0,1-.59961.26171.74528.74528,0,0,1-.61035-.26757,1.15676,1.15676,0,0,1-.28516-.852,1.139,1.139,0,0,1,.28125-.8418.765.765,0,0,1,.61426-.26416.73831.73831,0,0,1,.60449.25976,1.1554,1.1554,0,0,1,.27832.8462A1.17558,1.17558,0,0,1,36.76963,22.05092Zm11.24219-1.69385-.70215.9165a1.64709,1.64709,0,0,1-1.42383.68946,1.68253,1.68253,0,0,1-1.26953-.49415,1.988,1.988,0,0,1,.001-2.62451,1.67852,1.67852,0,0,1,1.26855-.49365,1.62443,1.62443,0,0,1,1.4209.65772l.69824.91894,1.67578-1.31872v3.07489Zm21.92187,1.11181a1.87912,1.87912,0,0,1-2.54,0,1.988,1.988,0,0,1,.001-2.62451,1.87858,1.87858,0,0,1,2.53906.00049,1.98885,1.98885,0,0,1,0,2.624Zm10.752,0a1.87912,1.87912,0,0,1-2.54,0,1.988,1.988,0,0,1,.001-2.62451,1.87859,1.87859,0,0,1,2.53907.00049,1.98885,1.98885,0,0,1,0,2.624Zm7.96972-3.01953v-.18261a3.48253,3.48253,0,0,1,.875.08984A3.3334,3.3334,0,0,1,88.65537,18.44935Z"/><path class="cls-2" d="M85.35166,15.215h3.26172a4.60667,4.60667,0,0,1,3.04492.854,2.84945,2.84945,0,0,1,1.001,2.28223,2.87078,2.87078,0,0,1-1.001,2.28906,4.579,4.579,0,0,1-3.04492.86084h-1.0918v3.584H85.35166Zm2.16992,1.918v2.45019h1.0918a3.47828,3.47828,0,0,0,1.5752-.273.99271.99271,0,0,0,.51074-.959.97759.97759,0,0,0-.51074-.95215,3.5612,3.5612,0,0,0-1.5752-.26611Z"/><path class="cls-2" d="M75.81748,16.48207a5.21981,5.21981,0,0,1,7.18946,0,4.97843,4.97843,0,0,1,1.43457,3.6748,4.97881,4.97881,0,0,1-1.43457,3.6753,5.2211,5.2211,0,0,1-7.18946,0,4.96561,4.96561,0,0,1-1.44238-3.6753A4.96523,4.96523,0,0,1,75.81748,16.48207Zm5.66992,1.561a3.01077,3.01077,0,0,0-4.14355,0,3.11714,3.11714,0,0,0,0,4.22754,3.01077,3.01077,0,0,0,4.14355,0,3.11712,3.11712,0,0,0,0-4.22754Z"/><path class="cls-2" d="M65.06553,16.48207a5.2198,5.2198,0,0,1,7.18945,0,4.97839,4.97839,0,0,1,1.43457,3.6748,4.97877,4.97877,0,0,1-1.43457,3.6753,5.22109,5.22109,0,0,1-7.18945,0,4.96561,4.96561,0,0,1-1.44238-3.6753A4.96523,4.96523,0,0,1,65.06553,16.48207Zm5.66992,1.561a3.01077,3.01077,0,0,0-4.14355,0,3.11712,3.11712,0,0,0,0,4.22754,3.01077,3.01077,0,0,0,4.14355,0,3.11714,3.11714,0,0,0,0-4.22754Z"/><path class="cls-2" d="M57.52061,19.2892h5.208V21.319h-5.208Z"/><path class="cls-2" d="M50.81455,15.215h2.16992v7.95215h3.84961v1.918H50.81455Z"/><path class="cls-2" d="M45.88584,15.047a5.222,5.222,0,0,1,2.30371.51123,4.60763,4.60763,0,0,1,1.72852,1.4209l-1.708,1.34375a2.75658,2.75658,0,0,0-2.32422-1.106,2.80794,2.80794,0,0,0-2.07129.82617,3.11714,3.11714,0,0,0,0,4.22754,2.80794,2.80794,0,0,0,2.07129.82617A2.77887,2.77887,0,0,0,48.21006,21.963l1.708,1.35742A4.5539,4.5539,0,0,1,48.18955,24.756a5.22165,5.22165,0,0,1-2.30371.51075,4.89541,4.89541,0,0,1-3.59765-1.43457,4.96562,4.96562,0,0,1-1.44239-3.6753,4.96524,4.96524,0,0,1,1.44239-3.6748A4.89389,4.89389,0,0,1,45.88584,15.047Z"/><path class="cls-2" d="M33.31455,18.27406a4.14449,4.14449,0,0,1,5.71192,0,3.93941,3.93941,0,0,1,1.14843,2.919,3.96393,3.96393,0,0,1-1.14843,2.92627,4.12789,4.12789,0,0,1-5.71192,0A3.96393,3.96393,0,0,1,32.16612,21.193,3.93941,3.93941,0,0,1,33.31455,18.27406Zm4.29785,1.30908A1.86881,1.86881,0,0,0,36.17,18.95326a1.88831,1.88831,0,0,0-1.44824.62988,2.27983,2.27983,0,0,0-.58106,1.60987,2.306,2.306,0,0,0,.58106,1.6167,1.878,1.878,0,0,0,1.44824.63671,1.85868,1.85868,0,0,0,1.44238-.63671,2.32384,2.32384,0,0,0,.57422-1.6167A2.29733,2.29733,0,0,0,37.6124,19.58314Z"/><path class="cls-2" d="M31.73252,17.133v2.03027A2.25949,2.25949,0,0,0,29.213,21.50111v3.584H27.169V17.30092h2.044V18.421a2.95,2.95,0,0,1,1.085-.94482A3.087,3.087,0,0,1,31.73252,17.133Z"/><path class="cls-2" d="M24.005,14.51527h2.04395V25.0851H24.005v-.67188a3.02942,3.02942,0,0,1-2.24023.85352A3.54709,3.54709,0,0,1,19.03526,24.133,4.15551,4.15551,0,0,1,17.98447,21.193a4.13024,4.13024,0,0,1,1.05079-2.93311A3.55873,3.55873,0,0,1,21.76475,17.133a3.02836,3.02836,0,0,1,2.24023.84033Zm-.57422,5.06787a1.9653,1.9653,0,0,0-2.88379,0,2.54383,2.54383,0,0,0,0,3.21973,1.9653,1.9653,0,0,0,2.88379,0,2.54379,2.54379,0,0,0,0-3.21973Z"/><path class="cls-2" d="M15.212,14.7389a1.193,1.193,0,0,1,1.56836,0,1.18912,1.18912,0,0,1,0,1.5962,1.193,1.193,0,0,1-1.56836,0,1.18915,1.18915,0,0,1,0-1.5962Zm-.23828,2.562h2.04492V25.0851H14.97373Z"/><path class="cls-2" d="M5.13291,15.215H7.30283V19.275h4.31153V15.215h2.16992V25.0851H11.61436V21.193H7.30283V25.0851H5.13291Z"/><path class="cls-1" d="M43.048,32.3849V27.72572h1.73242a2.18725,2.18725,0,0,1,1.45508.44043,1.67722,1.67722,0,0,1,.002,2.49414,2.06379,2.06379,0,0,1-1.28027.44043V32.3849Z"/><path class="cls-1" d="M45.98252,32.3849V28.47084h1.74414a1.70217,1.70217,0,0,1,.45313-.06055h.56738v1.85938h-.56738a.40534.40534,0,0,0-.25489.05468.302.302,0,0,0-.07812.21387V32.3849Z"/><path class="cls-1" d="M49.76475,32.45033a1.94392,1.94392,0,0,1-1.42188-.57617,2.10223,2.10223,0,0,1,0-2.88965,1.94534,1.94534,0,0,1,1.42188-.57422,2.02,2.02,0,1,1,0,4.04Zm0-2.25488a.11026.11026,0,0,0-.10059.042.243.243,0,0,0-.05664.19043.25436.25436,0,0,0,.05762.19434.1087.1087,0,0,0,.09961.043.09875.09875,0,0,0,.09277-.03906.26024.26024,0,0,0,.05957-.19824.24918.24918,0,0,0-.05762-.19336A.10161.10161,0,0,0,49.76475,30.19545Z"/><path class="cls-1" d="M52.78428,32.45033a1.838,1.838,0,0,1-1.39063-.58789,2.21653,2.21653,0,0,1,.001-2.86914,1.8519,1.8519,0,0,1,1.38965-.583,2.23756,2.23756,0,0,1,.23242.0127v-.94727h1.86524V32.3849H53.28428A1.88537,1.88537,0,0,1,52.78428,32.45033Zm.08008-2.25488a.10163.10163,0,0,0-.09473.03906.35325.35325,0,0,0,0,.38672.10142.10142,0,0,0,.09473.03906.10629.10629,0,0,0,.09668-.04.2553.2553,0,0,0,.05566-.19238.24918.24918,0,0,0-.05762-.19336A.10161.10161,0,0,0,52.86436,30.19545Z"/><path class="cls-1" d="M55.6749,32.45033a1.51443,1.51443,0,0,1-1.0625-.43555,1.54809,1.54809,0,0,1-.46484-1.14746V28.47084h1.86426v0h1.86523V32.3849H56.131A1.66066,1.66066,0,0,1,55.6749,32.45033Z"/><path class="cls-1" d="M59.05967,32.45033a1.94392,1.94392,0,0,1-1.42188-.57617,2.10223,2.10223,0,0,1,0-2.88965,1.94534,1.94534,0,0,1,1.42188-.57422,2.00714,2.00714,0,0,1,.98535.249,1.93232,1.93232,0,0,1,.71777.6875l.31641.51661-1.0791.5664,1.084.54688-.31347.52343a1.92614,1.92614,0,0,1-.71973.69727A1.99541,1.99541,0,0,1,59.05967,32.45033Zm0-2.25488a.11027.11027,0,0,0-.10059.042.243.243,0,0,0-.05664.19043.25436.25436,0,0,0,.05762.19434.1087.1087,0,0,0,.09961.043c.05566,0,.07715-.00488.11719-.07031l.10156-.16406-.10156-.165C59.13682,30.20033,59.11533,30.19545,59.05967,30.19545Z"/><path class="cls-1" d="M61.84971,32.45033a1.60777,1.60777,0,0,1-.67676-.1377,1.29674,1.29674,0,0,1-.49512-.38183,1.52077,1.52077,0,0,1-.251-.53418,2.74207,2.74207,0,0,1-.085-.48926c-.00879-.13281-.01465-.292-.01465-.47949v-.15234h-.45508V28.47084h.45508V27.715h1.83984v.75586h.7207v1.80469h-.29l.61914,1.42675-.2168.2666a1.14213,1.14213,0,0,1-.14746.14844,1.39585,1.39585,0,0,1-.3916.21582A1.60727,1.60727,0,0,1,61.84971,32.45033Zm.31738-1.94238.33887-.23242h-.33887Z"/><path class="cls-1" d="M63.74815,33.3849V28.47084h1.60351a1.94947,1.94947,0,0,1,.49317-.06055,1.84883,1.84883,0,0,1,1.38964.583,2.2163,2.2163,0,0,1,.002,2.87012,1.84129,1.84129,0,0,1-1.3916.58691,2.00827,2.00827,0,0,1-.23243-.01367v.94824Zm2.0166-3.18945a.10061.10061,0,0,0-.09473.03906.35325.35325,0,0,0,0,.38672.10142.10142,0,0,0,.09473.03906.106.106,0,0,0,.09765-.04.25524.25524,0,0,0,.05567-.19238.24918.24918,0,0,0-.05762-.19336A.10139.10139,0,0,0,65.76475,30.19545Z"/><path class="cls-1" d="M66.94737,32.3849V28.47084h1.74414a1.702,1.702,0,0,1,.45312-.06055H69.712v1.85938h-.56738a.4053.4053,0,0,0-.25488.05468.302.302,0,0,0-.07813.21387V32.3849Z"/><path class="cls-1" d="M70.72959,32.45033a1.94388,1.94388,0,0,1-1.42187-.57617,2.1022,2.1022,0,0,1,0-2.88965,1.94532,1.94532,0,0,1,1.42187-.57422,2.02,2.02,0,1,1,0,4.04Zm0-2.25488a.11025.11025,0,0,0-.10058.042.243.243,0,0,0-.05664.19043.25437.25437,0,0,0,.05761.19434.10871.10871,0,0,0,.09961.043.09877.09877,0,0,0,.09278-.03906.26028.26028,0,0,0,.05957-.19824.24918.24918,0,0,0-.05762-.19336A.10164.10164,0,0,0,70.72959,30.19545Z"/><path class="cls-1" d="M73.8292,32.45033a1.94388,1.94388,0,0,1-1.42187-.57617,2.1022,2.1022,0,0,1,0-2.88965,1.94532,1.94532,0,0,1,1.42187-.57422,2.00714,2.00714,0,0,1,.98535.249,1.93242,1.93242,0,0,1,.71778.6875l.3164.51661-1.0791.5664,1.084.54688-.31348.52343a1.92614,1.92614,0,0,1-.71973.69727A1.99541,1.99541,0,0,1,73.8292,32.45033Zm0-2.25488a.11025.11025,0,0,0-.10058.042.243.243,0,0,0-.05665.19043.25436.25436,0,0,0,.05762.19434.10871.10871,0,0,0,.09961.043c.05567,0,.07715-.00488.11719-.07031l.10156-.16406-.10156-.165C73.90635,30.20033,73.88487,30.19545,73.8292,30.19545Z"/><path class="cls-1" d="M76.72959,32.45033a1.94089,1.94089,0,0,1-1.42187-.57715,2.02142,2.02142,0,0,1,1.43164-3.46289,1.81515,1.81515,0,0,1,1.31445.5293,1.966,1.966,0,0,1,.543,1.458,2.52926,2.52926,0,0,1-.01465.30175l-.02246.17871.19434.09864-.31348.52343a1.92614,1.92614,0,0,1-.71973.69727A1.99541,1.99541,0,0,1,76.72959,32.45033Z"/><path class="cls-1" d="M79.39463,32.45033a2.71077,2.71077,0,0,1-.73535-.10156,2.186,2.186,0,0,1-.56055-.22559l-.58105-.3584.58008-1.082-.02637-.02929a1.17214,1.17214,0,0,1-.29981-.7959,1.31736,1.31736,0,0,1,.54883-1.10743,1.80311,1.80311,0,0,1,1.08887-.33984,2.2284,2.2284,0,0,1,.70117.11231,1.80115,1.80115,0,0,1,.52637.25l.51269.35644-.48047.90918a1.79259,1.79259,0,0,1,.13868.14649,1.25813,1.25813,0,0,1,.28418.81347,1.32779,1.32779,0,0,1-.52539,1.11621A1.9147,1.9147,0,0,1,79.39463,32.45033Z"/><path class="cls-1" d="M81.89463,32.45033a2.71077,2.71077,0,0,1-.73535-.10156,2.186,2.186,0,0,1-.56055-.22559l-.58105-.3584.58008-1.082-.02637-.02929a1.17214,1.17214,0,0,1-.29981-.7959,1.31736,1.31736,0,0,1,.54883-1.10743,1.80311,1.80311,0,0,1,1.08887-.33984,2.2284,2.2284,0,0,1,.70117.11231,1.80115,1.80115,0,0,1,.52637.25l.51269.35644-.48047.90918a1.79259,1.79259,0,0,1,.13868.14649,1.25813,1.25813,0,0,1,.28418.81347,1.32779,1.32779,0,0,1-.52539,1.11621A1.9147,1.9147,0,0,1,81.89463,32.45033Z"/><path class="cls-1" d="M84.69932,32.45033a1.94392,1.94392,0,0,1-1.42188-.57617,2.10223,2.10223,0,0,1,0-2.88965,1.94534,1.94534,0,0,1,1.42188-.57422,2.02,2.02,0,1,1,0,4.04Zm0-2.25488a.11026.11026,0,0,0-.10059.042.243.243,0,0,0-.05664.19043.25436.25436,0,0,0,.05762.19434.1087.1087,0,0,0,.09961.043.09875.09875,0,0,0,.09277-.03906.26024.26024,0,0,0,.05957-.19824.24918.24918,0,0,0-.05762-.19336A.10161.10161,0,0,0,84.69932,30.19545Z"/><path class="cls-1" d="M85.88194,32.3849V28.47084h1.74414a1.702,1.702,0,0,1,.45312-.06055h.56738v1.85938H88.0792a.4053.4053,0,0,0-.25488.05468.302.302,0,0,0-.07813.21387V32.3849Z"/><path class="cls-2" d="M43.64756,28.32582h1.165a1.64426,1.64426,0,0,1,1.08691.30469,1.11109,1.11109,0,0,1,0,1.63281,1.63321,1.63321,0,0,1-1.08691.30762H44.422v1.27929h-.77441Zm.77441.68457v.875h.39063a1.23812,1.23812,0,0,0,.5625-.09766.41148.41148,0,0,0,0-.68261,1.28577,1.28577,0,0,0-.5625-.09473Z"/><path class="cls-2" d="M48.212,29.01039V29.735a.80791.80791,0,0,0-.90039.83594v1.27929h-.72949V29.07094h.72949v.39941a1.04319,1.04319,0,0,1,.3877-.33691A1.09726,1.09726,0,0,1,48.212,29.01039Z"/><path class="cls-2" d="M48.77647,29.41762a1.48108,1.48108,0,0,1,2.04,0,1.53364,1.53364,0,0,1,0,2.08789,1.47344,1.47344,0,0,1-2.04,0,1.5363,1.5363,0,0,1,0-2.08789Zm1.53515.46777a.6644.6644,0,0,0-.51465-.22461.67337.67337,0,0,0-.51757.22461.90526.90526,0,0,0,0,1.15234.66942.66942,0,0,0,.51757.22754.66055.66055,0,0,0,.51465-.22754.91191.91191,0,0,0,0-1.15234Z"/><path class="cls-2" d="M53.61631,28.07582h.73047v3.77441h-.73047V31.61a1.07831,1.07831,0,0,1-.7998.30566,1.26461,1.26461,0,0,1-.97461-.40527,1.65422,1.65422,0,0,1,0-2.09766,1.27251,1.27251,0,0,1,.97461-.40234,1.08069,1.08069,0,0,1,.7998.2998Zm-.20508,1.80957a.7019.7019,0,0,0-1.02929,0,.90917.90917,0,0,0,0,1.15039.7019.7019,0,0,0,1.02929,0,.90917.90917,0,0,0,0-1.15039Z"/><path class="cls-2" d="M54.74717,29.07094h.72949v1.51953q0,.65478.48047.65527a.78343.78343,0,0,0,.40723-.10254.58064.58064,0,0,0,.24707-.2832V29.07094h.73047v2.77929h-.73047v-.375a1.1019,1.1019,0,0,1-.41016.32227,1.14165,1.14165,0,0,1-.49414.11816.93918.93918,0,0,1-.66992-.27734.97448.97448,0,0,1-.29-.73828v-1.8291Z"/><path class="cls-2" d="M59.69151,30.92543l.625.31543a1.35308,1.35308,0,0,1-.50977.49414,1.42944,1.42944,0,0,1-.71484.18066,1.38479,1.38479,0,0,1-1.02051-.41015,1.5363,1.5363,0,0,1,0-2.08789,1.38994,1.38994,0,0,1,1.02051-.40723,1.44018,1.44018,0,0,1,.71.17773,1.36421,1.36421,0,0,1,.50976.48731l-.62011.32519a.66576.66576,0,0,0-.59961-.33984.6734.6734,0,0,0-.51758.22461.90526.90526,0,0,0,0,1.15234.70044.70044,0,0,0,1.11719-.1123Z"/><path class="cls-2" d="M60.92686,28.31508h.70508v.75586h.7207v.66992h-.7207v.97949a1.68159,1.68159,0,0,0,.01074.20019.71491.71491,0,0,0,.04.16993.25065.25065,0,0,0,.09472.12988.27925.27925,0,0,0,.165.04492.66534.66534,0,0,0,.21973-.03711A.467.467,0,0,0,62.3126,31.15l.0498-.03418.2295.52929a.63851.63851,0,0,1-.07715.0752.99433.99433,0,0,1-.23535.12012,1.1341,1.1341,0,0,1-.83692-.00977.73141.73141,0,0,1-.2832-.21289.961.961,0,0,1-.15234-.335,2.15777,2.15777,0,0,1-.06739-.38477c-.00781-.11816-.01269-.26464-.01269-.4375v-.71972h-.45508v-.66992h.45508Z"/><path class="cls-2" d="M65.87705,29.01039a1.27464,1.27464,0,0,1,.97559.40234,1.65422,1.65422,0,0,1,0,2.09766,1.26673,1.26673,0,0,1-.97559.40527,1.07829,1.07829,0,0,1-.7998-.30566v1.24023h-.72949V29.07094h.72949v.23925A1.08067,1.08067,0,0,1,65.87705,29.01039Zm.43555.875a.703.703,0,0,0-1.03027,0,.90917.90917,0,0,0,0,1.15039.703.703,0,0,0,1.03027,0,.90917.90917,0,0,0,0-1.15039Z"/><path class="cls-2" d="M69.17686,29.01039V29.735a.8079.8079,0,0,0-.90039.83594v1.27929H67.547V29.07094h.7295v.39941a1.04316,1.04316,0,0,1,.38769-.33691A1.0973,1.0973,0,0,1,69.17686,29.01039Z"/><path class="cls-2" d="M69.74131,29.41762a1.48108,1.48108,0,0,1,2.04,0,1.53361,1.53361,0,0,1,0,2.08789,1.47344,1.47344,0,0,1-2.04,0,1.5363,1.5363,0,0,1,0-2.08789Zm1.53516.46777a.66442.66442,0,0,0-.51465-.22461.6734.6734,0,0,0-.51758.22461.90526.90526,0,0,0,0,1.15234.66944.66944,0,0,0,.51758.22754.66056.66056,0,0,0,.51465-.22754.91194.91194,0,0,0,0-1.15234Z"/><path class="cls-2" d="M74.461,30.92543l.625.31543a1.35308,1.35308,0,0,1-.50977.49414,1.42944,1.42944,0,0,1-.71484.18066,1.38479,1.38479,0,0,1-1.02051-.41015,1.5363,1.5363,0,0,1,0-2.08789,1.38994,1.38994,0,0,1,1.02051-.40723,1.44018,1.44018,0,0,1,.71.17773,1.36421,1.36421,0,0,1,.50976.48731l-.62011.32519a.66576.66576,0,0,0-.59961-.33984.6734.6734,0,0,0-.51758.22461.90526.90526,0,0,0,0,1.15234.70044.70044,0,0,0,1.11719-.1123Z"/><path class="cls-2" d="M76.77158,29.01039a1.26105,1.26105,0,0,1,.918.36719,1.4156,1.4156,0,0,1,.37207,1.05273,1.9695,1.9695,0,0,1-.00976.23047H76.06162a.72328.72328,0,0,0,.24219.4375.688.688,0,0,0,.458.16211.65971.65971,0,0,0,.59961-.335l.625.31543a1.35308,1.35308,0,0,1-.50977.49414,1.42944,1.42944,0,0,1-.71484.18066,1.38479,1.38479,0,0,1-1.02051-.41015,1.419,1.419,0,0,1-.40918-1.04493,1.40563,1.40563,0,0,1,1.43945-1.45019Zm-.00976.65039a.68282.68282,0,0,0-.38965.11719.69807.69807,0,0,0-.26074.32226h1.2207a.43474.43474,0,0,0-.13281-.29687A.57359.57359,0,0,0,76.76182,29.66078Z"/><path class="cls-2" d="M80.55674,31.0309a.77509.77509,0,0,1-.29785.66211,1.36378,1.36378,0,0,1-.832.22265,2.154,2.154,0,0,1-.583-.08008,1.71559,1.71559,0,0,1-.41211-.16015l-.12988-.08008.2998-.55957c.02637.0166.06446.03906.11524.06738a1.73488,1.73488,0,0,0,.29.10938,1.36761,1.36761,0,0,0,.41992.06836.61113.61113,0,0,0,.33691-.06543.20585.20585,0,0,0,.08789-.17481q0-.10986-.15234-.1875a2.21105,2.21105,0,0,0-.37012-.14258c-.14551-.043-.29-.09375-.43555-.15039a.9685.9685,0,0,1-.37011-.25488.6.6,0,0,1-.15235-.415.75658.75658,0,0,1,.31543-.64941,1.246,1.246,0,0,1,.75489-.23047,1.65245,1.65245,0,0,1,.52246.083,1.33866,1.33866,0,0,1,.36718.167l.11524.08008-.28516.54c-.02344-.01661-.05469-.03711-.09472-.0625a1.37448,1.37448,0,0,0-.25-.10254,1.16677,1.16677,0,0,0-.375-.06543c-.24024,0-.36036.07031-.36036.21,0,.05762.05079.1084.15332.15332a3.12752,3.12752,0,0,0,.36915.13183,3.91265,3.91265,0,0,1,.43261.15821.97309.97309,0,0,1,.36817.27734A.68463.68463,0,0,1,80.55674,31.0309Z"/><path class="cls-2" d="M83.05674,31.0309a.77509.77509,0,0,1-.29785.66211,1.36378,1.36378,0,0,1-.832.22265,2.154,2.154,0,0,1-.583-.08008,1.71559,1.71559,0,0,1-.41211-.16015l-.12988-.08008.2998-.55957c.02637.0166.06446.03906.11524.06738a1.73488,1.73488,0,0,0,.29.10938,1.36761,1.36761,0,0,0,.41992.06836.61113.61113,0,0,0,.33691-.06543.20585.20585,0,0,0,.08789-.17481q0-.10986-.15234-.1875a2.21105,2.21105,0,0,0-.37012-.14258c-.14551-.043-.29-.09375-.43555-.15039a.9685.9685,0,0,1-.37011-.25488.6.6,0,0,1-.15235-.415.75658.75658,0,0,1,.31543-.64941,1.246,1.246,0,0,1,.75489-.23047,1.65245,1.65245,0,0,1,.52246.083,1.33866,1.33866,0,0,1,.36718.167l.11524.08008-.28516.54c-.02344-.01661-.05469-.03711-.09472-.0625a1.37448,1.37448,0,0,0-.25-.10254,1.16677,1.16677,0,0,0-.375-.06543c-.24024,0-.36036.07031-.36036.21,0,.05762.05079.1084.15332.15332a3.12752,3.12752,0,0,0,.36915.13183,3.91265,3.91265,0,0,1,.43261.15821.97309.97309,0,0,1,.36817.27734A.68463.68463,0,0,1,83.05674,31.0309Z"/><path class="cls-2" d="M83.711,29.41762a1.48108,1.48108,0,0,1,2.04,0,1.53364,1.53364,0,0,1,0,2.08789,1.47344,1.47344,0,0,1-2.04,0,1.5363,1.5363,0,0,1,0-2.08789Zm1.53515.46777a.6644.6644,0,0,0-.51465-.22461.67337.67337,0,0,0-.51757.22461.90526.90526,0,0,0,0,1.15234.66942.66942,0,0,0,.51757.22754.66055.66055,0,0,0,.51465-.22754.91191.91191,0,0,0,0-1.15234Z"/><path class="cls-2" d="M88.11143,29.01039V29.735a.8079.8079,0,0,0-.90039.83594v1.27929h-.7295V29.07094h.7295v.39941a1.04316,1.04316,0,0,1,.38769-.33691A1.0973,1.0973,0,0,1,88.11143,29.01039Z"/></g></svg>