<svg id="Capa_2" data-name="Capa 2" xmlns="http://www.w3.org/2000/svg" viewBox="0 0 54.03572 40.71704"><defs><style>.cls-1{fill:#4c91d8;}.cls-2{fill:#fff;}</style></defs><path class="cls-1" d="M51.48436,28.94344V20.9292H46.94531v1.02855a6.001,6.001,0,0,0-.8876-.56581,6.45165,6.45165,0,0,0-2.83274-.63211c-.08677,0-.16485.01916-.25032.0221V17.8635l6.50486-1.79659V10.99608a1.52943,1.52943,0,0,0,1.10728-1.45951,1.54864,1.54864,0,0,0-3.09728,0,1.52947,1.52947,0,0,0,1.10814,1.45972v4.39889l-5.623,1.55381V14.09342a1.52954,1.52954,0,0,0,1.10727-1.4595,1.54867,1.54867,0,1,0-3.09734,0,1.5296,1.5296,0,0,0,1.10821,1.45972v6.7663a6.0535,6.0535,0,0,0-4.67792,3.74231c-.07177-.08059-.12674-.17059-.20446-.24781a5.03768,5.03768,0,0,0-3.48388-1.47235L32.387,21.56885l4.08276-1.60419V14.09342a1.52954,1.52954,0,0,0,1.10721-1.4595,1.54864,1.54864,0,1,0-3.09727,0,1.5296,1.5296,0,0,0,1.10821,1.45972v5.27049l-3.89072,1.5284-1.78511-1.75.03022-1.94729a1.52812,1.52812,0,0,0,1.12973-1.464,1.54864,1.54864,0,0,0-3.09727,0A1.53084,1.53084,0,0,0,29.06,17.18625l-.0366,2.32141,3.51273,3.44254a5.02075,5.02075,0,0,0-2.25883,1.00939V22.86228H29.10143a4.34846,4.34846,0,0,0-1.36412.2153l-3.11866-.03244V20.2236H22.70716l.738-2.83218.00955-3.29692a1.52939,1.52939,0,0,0,1.11251-1.46058,1.54867,1.54867,0,1,0-3.09734,0,1.52969,1.52969,0,0,0,1.1072,1.4595v3.13036l-.15121.57987-5.47179-3.8501V10.99629a1.52954,1.52954,0,0,0,1.10821-1.45972,1.54864,1.54864,0,0,0-3.09728,0,1.52948,1.52948,0,0,0,1.10721,1.45951V14.4117l6.1161,4.303-.39342,1.50888H20.20705v2.74834a5.14794,5.14794,0,0,0-1.08165-.10966,4.73581,4.73581,0,0,0-3.53663,1.44465V23.03739a2.52467,2.52467,0,0,0,.07119-.608,2.21629,2.21629,0,0,0-.67632-1.65693,2.41,2.41,0,0,0-3.20248.0023c-.04485.04284-.09093.10155-.13693.15444h-1.086V17.1907a1.52957,1.52957,0,0,0,1.10713-1.45951,1.54864,1.54864,0,0,0-3.09727,0,1.5296,1.5296,0,0,0,1.10828,1.45972V20.9292H7.861V25.021H5.86765V20.9292H4.05226V17.19091a1.52961,1.52961,0,0,0,1.10828-1.45972,1.54864,1.54864,0,0,0-3.09727,0A1.52957,1.52957,0,0,0,3.1704,17.1907v3.7385H1.3286V33.22758H5.86765V29.30514H7.861v3.92244H7.85248c2.84552,1.688,18.71167,1.86362,21.61525,4.0519,1.72152,1.29746-5.74207,1.629-9.81665,2.27226-4.9662.784-7.03894,4.39408-2.90623,6.57677A23.55686,23.55686,0,0,0,25.19091,48.703c.01342.00129.02741.00194.04083.00194H35.72385a.363.363,0,0,0,.092-.71486c-5.75-1.42391-16.12723-4.35856-10.36809-5.76374,5.2031-1.26947,18.66825-4.30854,9.66-6.023-9.65481-1.8375-22.69561-2.29458-23.74347-2.97585h4.2245V31.95991A4.7239,4.7239,0,0,0,19.1254,33.4113a4.88051,4.88051,0,0,0,1.36183-.18372h7.25008V28.44051a1.26717,1.26717,0,0,1,.3261-.87957.72969.72969,0,0,1,.294-.18386,6.07478,6.07478,0,0,0-.06546.75225,5.14086,5.14086,0,0,0,1.50192,3.78A5.15979,5.15979,0,0,0,38.055,30.75445a6.06178,6.06178,0,0,0,5.17,2.65685,6.44127,6.44127,0,0,0,2.83044-.63154,5.93328,5.93328,0,0,0,.8899-.54025v.98807h8.419V28.94344Zm-31.54944.01723a.77083.77083,0,0,1-1.16893-.00115,1.40479,1.40479,0,0,1,.00115-1.66038.80488.80488,0,0,1,1.16778,0,1.40415,1.40415,0,0,1,0,1.66153Zm14.14764.01148a.76156.76156,0,0,1-1.17122-.00689,1.137,1.137,0,0,1-.27787-.83593,1.11777,1.11777,0,0,1,.27443-.8256.73291.73291,0,0,1,.59594-.25548.713.713,0,0,1,.58332.25089,1.131,1.131,0,0,1,.27213.83019A1.15359,1.15359,0,0,1,34.08256,28.97215Zm12.86275-.47337-1.58344-1.25935-.728.9519a1.62767,1.62767,0,0,1-1.40891.68092,1.66608,1.66608,0,0,1-1.25734-.488,1.973,1.973,0,0,1-.00115-2.59678,1.67087,1.67087,0,0,1,1.25849-.48915,1.60992,1.60992,0,0,1,1.40661.65106l.7234.95133,1.59033-1.25153Z" transform="translate(-1.3286 -7.98794)"/><path class="cls-2" d="M2.50441,22.105H4.69184v4.09181h4.345V22.105h2.18743v9.94676H9.03683V28.12933h-4.345v3.92244H2.50441Z" transform="translate(-1.3286 -7.98794)"/><path class="cls-2" d="M12.593,21.625a1.203,1.203,0,0,1,1.58114,0,1.19843,1.19843,0,0,1,0,1.6087,1.203,1.203,0,0,1-1.58114,0,1.19843,1.19843,0,0,1,0-1.6087Zm-.24,2.58242h2.06v7.84431h-2.06Z" transform="translate(-1.3286 -7.98794)"/><path class="cls-2" d="M21.38287,21.39941h2.06V32.05177h-2.06V31.3743a3.05211,3.05211,0,0,1-2.25747.86119A3.57791,3.57791,0,0,1,16.37418,31.093a4.19245,4.19245,0,0,1-1.05869-2.96364,4.16465,4.16465,0,0,1,1.05869-2.95561A3.58855,3.58855,0,0,1,19.1254,24.0381a3.05024,3.05024,0,0,1,2.25747.84626Zm-.57872,5.108a1.98016,1.98016,0,0,0-2.90624,0,2.56293,2.56293,0,0,0,0,3.24439,1.98016,1.98016,0,0,0,2.90624,0,2.56293,2.56293,0,0,0,0-3.24439Z" transform="translate(-1.3286 -7.98794)"/><path class="cls-2" d="M29.10143,24.0381v2.04561a2.27944,2.27944,0,0,0-2.53994,2.3568v3.61126h-2.06V24.20746h2.06V25.3362a2.98161,2.98161,0,0,1,1.09314-.95248A3.11219,3.11219,0,0,1,29.10143,24.0381Z" transform="translate(-1.3286 -7.98794)"/><path class="cls-2" d="M30.62517,25.18807a4.17658,4.17658,0,0,1,5.7562,0,4.32533,4.32533,0,0,1,0,5.89,4.15707,4.15707,0,0,1-5.7562,0,4.32533,4.32533,0,0,1,0-5.89Zm4.33121,1.31935a1.88,1.88,0,0,0-1.45254-.635,1.90364,1.90364,0,0,0-1.46058.635,2.29845,2.29845,0,0,0-.58561,1.62191,2.322,2.322,0,0,0,.58561,1.62937,1.89537,1.89537,0,0,0,1.46058.643,1.872,1.872,0,0,0,1.45254-.643,2.33838,2.33838,0,0,0,.57873-1.62937A2.31458,2.31458,0,0,0,34.95638,26.50742Z" transform="translate(-1.3286 -7.98794)"/><path class="cls-2" d="M43.225,21.93564a5.2585,5.2585,0,0,1,2.32062.515,4.63532,4.63532,0,0,1,1.74305,1.43187l-1.72123,1.35494a2.77928,2.77928,0,0,0-2.34244-1.115,2.83617,2.83617,0,0,0-2.08868.83249,3.14194,3.14194,0,0,0,0,4.2606,2.83173,2.83173,0,0,0,2.08868.83248,2.79839,2.79839,0,0,0,2.34244-1.14251l1.72123,1.36872a4.56434,4.56434,0,0,1-1.74305,1.44565,5.25888,5.25888,0,0,1-2.32062.51557,4.932,4.932,0,0,1-3.62619-1.4468,4.99793,4.99793,0,0,1-1.45369-3.70312,5.00194,5.00194,0,0,1,1.45369-3.7037A4.93381,4.93381,0,0,1,43.225,21.93564Z" transform="translate(-1.3286 -7.98794)"/><path class="cls-2" d="M48.12113,22.105h2.18742v8.01424h3.88v1.93252H48.12113Z" transform="translate(-1.3286 -7.98794)"/></svg>